# xmcd
#
# Track frame offsets:
#	150
#	18080
#	34495
#	52965
#	65807
#	79007
#	96332
#	113787
#	130062
#	148997
#	161985
#	178827
#
# Disc length: 2593 seconds
#
# Revision: 0
# Processed by: cddbd v1.5.2PL0 Copyright (c) Steve Scherf et al.
# Submitted via: EasyCDDAExtractor 15.3.0.1
#
DISCID=ad0a1f0c
DTITLE=Yuri - Confesiones De Amor
DYEAR=1991
DGENRE=Latin
TTITLE0=Cuando Baja La Marea
TTITLE1=Dejala
TTITLE2=Esperanzas
TTITLE3=Si Me Recuerdas (If You Remember Me)
TTITLE4=Cartas
TTITLE5=Yo Te Pido Amor
TTITLE6=Es Ella Mas Que Yo
TTITLE7=Un Corazon Herido
TTITLE8=Amores Clandestinos
TTITLE9=Mi Timidez
TTITLE10=Te Quiero
TTITLE11=Te Estoy Queriendo Tanto
EXTD=
EXTT0=
EXTT1=
EXTT2=
EXTT3=
EXTT4=
EXTT5=
EXTT6=
EXTT7=
EXTT8=
EXTT9=
EXTT10=
EXTT11=
PLAYORDER=
